<?xml version="1.0" encoding="utf-8"?>
<!-- Generator: Adobe Illustrator 16.0.0, SVG Export Plug-In . SVG Version: 6.00 Build 0)  -->
<!DOCTYPE svg PUBLIC "-//W3C//DTD SVG 1.1//EN" "http://www.w3.org/Graphics/SVG/1.1/DTD/svg11.dtd">
<svg version="1.1" id="Layer_2" xmlns="http://www.w3.org/2000/svg" xmlns:xlink="http://www.w3.org/1999/xlink" x="0px" y="0px"
	 width="200px" height="200px" viewBox="0 0 200 200" style="enable-background:new 0 0 200 200;" xml:space="preserve">
<path style="fill:#2EAAE1;" d="M198.5,100.3c0,54.2-43.9,98.1-98.1,98.1S2.3,154.5,2.3,100.3c0-54.2,43.9-98.1,98.1-98.1
	S198.5,46.1,198.5,100.3z"/>
<g style="opacity:0.25;">
	<path style="fill:#FFFFFF;" d="M101.2,135.7c0,0.3,0.5,0.8,0.9,1c1.2,0.5,2.5,1,3.7,1.4l-4.7-4.7
		C101.2,134.1,101.2,134.9,101.2,135.7z"/>
	<path style="fill:#FFFFFF;" d="M140.4,60.7c0.1-1-0.3-1.4-1.2-1.7c-0.4-0.1-0.8-0.2-1.2-0.3l2.4,2.4
		C140.4,61,140.4,60.8,140.4,60.7z"/>
</g>
<g style="opacity:0.25;">
	<path style="fill:#FFFFFF;" d="M80.4,138.9c0.7,0,1.4,0,2.2,0l-2.2-2.2C80.4,137.5,80.4,138.2,80.4,138.9z"/>
	<path style="fill:#FFFFFF;" d="M85.9,59.5c0-0.3,0-0.7,0-1c-1.8,0-3.6,0-5.4,0c0,1.5,0,3,0,4.5l4.4-4.4L85.9,59.5z"/>
</g>
<g style="opacity:0.25;">
	<path style="fill:#FFFFFF;" d="M57.1,138.9c0.5,0,1,0,1.5,0l-1.5-1.5C57.1,138,57.1,138.4,57.1,138.9z"/>
	<path style="fill:#FFFFFF;" d="M62.5,59.6c0-0.4,0-0.8,0-1.1c-1.9,0-3.7,0-5.5,0c0,1.5,0,2.9,0,4.4l4.4-4.4L62.5,59.6z"/>
</g>
<g>
	<path style="fill:#FFFFFF;" d="M101.2,130c0,1.8,0,3.7,0,5.6c0,0.3,0.5,0.8,0.9,1c1.7,0.7,3.4,1.4,5.1,1.9
		c7.4,2.2,14.9,2.8,22.3,0.4c7.2-2.3,12.1-7.1,13.7-14.7c1.6-7.7-0.2-14.6-6.6-19.7c-3.3-2.6-6.9-4.9-10.5-7.3
		c-4.1-2.7-8.4-5.3-12.5-8.1c-5.3-3.6-6.9-9-5.8-15c1.1-6.1,5.2-9.5,10.9-11.1c4.6-1.3,9.3-1.1,13.9-0.1c2.6,0.5,5.1,1.4,7.8,2.2
		c0-1.4-0.1-2.9,0-4.4c0.1-1-0.3-1.4-1.2-1.7c-5.1-1.6-10.4-2.3-15.7-1.9c-5.6,0.4-10.8,2.1-15.1,5.8c-9.4,8.1-8.5,22.8-0.1,29.3
		c3.7,2.8,7.6,5.4,11.4,7.9c3.9,2.6,7.8,5,11.7,7.6c3.6,2.4,5.9,5.8,6.4,10.2c0.9,7.6-2.3,13.6-9.6,15.9c-6.2,2-12.4,1.9-18.5-0.2
		C106.8,132.7,104.1,131.3,101.2,130z M62.5,138.9c0-26.9,0-53.7,0-80.4c-1.9,0-3.7,0-5.5,0c0,26.9,0,53.6,0,80.4
		C58.9,138.9,60.7,138.9,62.5,138.9z M80.4,58.5c0,26.9,0,53.7,0,80.4c1.9,0,3.6,0,5.4,0c0-26.8,0-53.6,0-80.4
		C84,58.5,82.3,58.5,80.4,58.5z"/>
</g>
</svg>
