<?xml version="1.0" encoding="utf-8"?>
<!-- Generator: Adobe Illustrator 16.0.0, SVG Export Plug-In . SVG Version: 6.00 Build 0)  -->
<!DOCTYPE svg PUBLIC "-//W3C//DTD SVG 1.1//EN" "http://www.w3.org/Graphics/SVG/1.1/DTD/svg11.dtd">
<svg version="1.1" id="Layer_2" xmlns="http://www.w3.org/2000/svg" xmlns:xlink="http://www.w3.org/1999/xlink" x="0px" y="0px"
	 width="200px" height="200px" viewBox="0 0 200 200" enable-background="new 0 0 200 200" xml:space="preserve">
<g>
	<path fill="#897962" d="M106.297,2.25c7.24,9.477,19.35,30.514,31.76,74.98c25.635,91.875-29.604,115.188-37.602,118.043v0.318
		c0,0-0.174-0.051-0.482-0.156c-0.307,0.105-0.479,0.156-0.479,0.156v-0.318c-8-2.855-63.238-26.168-37.6-118.043
		C74.303,32.764,86.412,11.727,93.652,2.25C42.227,5.512,1.521,48.229,1.521,100.479c0,54.373,44.078,98.451,98.453,98.451
		c54.369,0,98.451-44.078,98.451-98.451C198.426,48.229,157.717,5.512,106.297,2.25z"/>
	<path fill="#0B9948" d="M99.494,195.592c0,0,0.172-0.051,0.479-0.156c-0.131-0.045-0.297-0.098-0.479-0.162V195.592z"/>
	<path fill="#BAD531" d="M100.455,195.273c7.998-2.855,63.236-26.168,37.602-118.043c-12.41-44.467-24.52-65.504-31.76-74.98
		c-1.934-0.123-3.877-0.201-5.842-0.211V195.273z"/>
	<path fill="#0B9948" d="M100.455,195.592v-0.318c-0.186,0.064-0.346,0.117-0.482,0.162
		C100.281,195.541,100.455,195.592,100.455,195.592z"/>
	<path fill="#2D9646" d="M99.494,195.273V2.039c-1.963,0.01-3.908,0.088-5.842,0.211c-7.24,9.477-19.35,30.514-31.758,74.98
		C36.256,169.105,91.494,192.418,99.494,195.273z"/>
	<path fill="#0B9948" d="M99.975,2.027c-0.16,0-0.318,0.01-0.48,0.012v193.234c0.182,0.064,0.348,0.117,0.479,0.162
		c0.137-0.045,0.297-0.098,0.482-0.162V2.039C100.295,2.037,100.137,2.027,99.975,2.027z"/>
</g>
</svg>
