<?xml version="1.0" encoding="utf-8"?>
<!-- Generator: Adobe Illustrator 16.0.0, SVG Export Plug-In . SVG Version: 6.00 Build 0)  -->
<!DOCTYPE svg PUBLIC "-//W3C//DTD SVG 1.1//EN" "http://www.w3.org/Graphics/SVG/1.1/DTD/svg11.dtd">
<svg version="1.1" id="Layer_2" xmlns="http://www.w3.org/2000/svg" xmlns:xlink="http://www.w3.org/1999/xlink" x="0px" y="0px"
	 width="200px" height="200px" viewBox="0 0 200 200" style="enable-background:new 0 0 200 200;" xml:space="preserve">
<g>
	<path style="fill:none;" d="M41,179.6c0.3,0.2,0.6,0.4,0.6,0.4c0,0,0.1,0,0.3-0.1c-0.4-0.3-0.8-0.6-1.3-1l-0.2,0.3L41,179.6z"/>
	<path style="fill:none;" d="M37.6,176.9l1.3,1.1l0.2-0.3c-2-1.6-3.8-3.2-5.7-4.9C34.8,174.3,36.5,176,37.6,176.9z"/>
	<path style="fill:none;" d="M48,184.1c-1.5-1-3.1-2-4.5-3c-0.1,0-0.1,0-0.1,0C43.1,181.1,45.7,182.8,48,184.1z"/>
	<path style="fill:none;" d="M109.9,198.7c-0.6,0.1-1.3,0.1-1.9,0.2c0.9,0.1,1.4,0.2,1.6,0.2C109.7,199,109.8,198.9,109.9,198.7z"/>
	<path style="fill:none;" d="M81.8,32.2c0.7,0.1,1.3,0.2,1.4,0.2c0,0,0.1,0,0.2-0.1c-1-0.2-2-0.3-2.9-0.5l0.1,0.1L81.8,32.2z"/>
	<path style="fill:none;" d="M58.2,27.2c1.5,0.5,2.7,0.8,4.5,1.3c-1.7-0.4-3.6-0.9-5.2-1.5c-0.3-0.1-0.6-0.2-0.9-0.4l0,0.1
		L58.2,27.2z"/>
	<path style="fill:none;" d="M74.1,30.8C74.1,30.8,74.1,30.7,74.1,30.8c-2.9-0.6-6.2-1.1-8.6-1.6C68.9,29.9,74,30.9,74.1,30.8z"/>
	<path style="fill:none;" d="M51.5,22.7c0,0-0.1,0.1-0.1,0.3C51.4,23,51.4,22.9,51.5,22.7C51.5,22.7,51.5,22.7,51.5,22.7z"/>
	<path style="fill:none;" d="M101.9,35.5c3.2,0.5,3.7,0.6,3.7,0.5c-6.6-1-12.1-1.9-17.2-2.8l0,0C88.4,33.3,91.7,33.8,101.9,35.5z"/>
	<path style="fill:none;" d="M106.1,106.7c-0.1,0-0.2,0.1-0.3,0.5c0.3-0.1,0.5-0.2,0.8-0.3C106.4,106.8,106.2,106.7,106.1,106.7
		C106.1,106.7,106.1,106.7,106.1,106.7z"/>
	<path style="fill:none;" d="M85.6,114.6c0,0,0,0.1,0,0.2c4.3-1.7,8.7-3.5,13.3-5.2c1-0.4,2-0.7,3.1-1.1c0-0.1,0-0.2,0-0.2
		C101.9,108.2,86,114.3,85.6,114.6z"/>
	<path style="fill:none;" d="M136.4,46.2c0.3,0,5.8,1.5,8.6,2.3c7,2.1,15.2,5.1,20.5,7.5l2.2,1l-1.5,0.4c-12.9,3-24,6.4-34.7,10.7
		c-0.9,0.4-1.7,0.7-1.7,0.7c-0.1,0,0.2-0.7,0.6-1.5c3.2-6.8,5.3-14,5.8-20C136.2,46.7,136.3,46.2,136.4,46.2z M133.4,49.9
		c-1.1,4.5-4,11.1-7.6,17.4c-0.6,1.1-1.2,2-1.3,2c-0.1,0-0.9-0.4-1.8-1c-3.5-2-7.5-4-11.8-5.8c-1.2-0.5-2.2-0.9-2.3-1
		c-0.2-0.2,9.5-6.6,14.6-9.6c4.1-2.5,10.7-6.1,10.8-6C134.2,46,133.8,48.4,133.4,49.9z M82.1,60.3c-0.1-0.8-0.2-1.5-0.2-1.6
		c0.1-0.1,4.3,0.9,6.5,1.5c3.4,1,10.7,3.4,10.7,3.6c0,0-0.8,0.7-1.8,1.6c-3.9,3.3-7.7,6.7-12.3,11.1c-1.3,1.3-2.5,2.4-2.5,2.4
		c-0.1,0-0.1-0.2,0-0.4C83.2,73.4,83,66.9,82.1,60.3z M92.3,74.1c2.8-2.4,8.8-7.2,8.9-7.1c0.1,0.1-0.9,3.8-1.6,5.8
		c-1.2,3.8-3.3,8.6-5.3,12.2c-0.5,0.8-1.2,2.1-1.6,2.8L91.9,89l-1.7-1.6c-2-1.9-3.6-3.1-5.6-4.1c-0.8-0.4-1.4-0.8-1.4-0.9
		C83.2,82.1,88.3,77.5,92.3,74.1z M98.6,83.7c2.7-4.9,4.9-10.8,6.1-16.6c0.1-0.5,0.2-0.8,0.3-0.8c0.4,0.1,4.3,1.9,7.3,3.4
		c2.7,1.3,6.8,3.5,7,3.7c0,0-1.4,0.8-3.2,1.7c-5.6,2.8-10.5,5.5-15.5,8.6c-1.4,0.9-2.6,1.6-2.7,1.6C97.8,85.3,97.8,85.1,98.6,83.7z
		 M120.2,42.7c4.2,0.8,10.2,2.1,10.6,2.2c0.2,0.1-0.5,0.4-2.5,1.3c-8,3.6-13.8,6.8-19.7,10.7c-1.5,1-2.8,1.9-2.9,1.9
		c0,0,0-0.9,0-1.9c0-5.7-1.1-11.5-3.2-16.3c-0.2-0.5-0.4-1-0.4-1C102.2,39.5,114.6,41.6,120.2,42.7z M101.1,42.6
		c1.1,4.3,1.6,9.2,1.4,13.8c0,1.3-0.1,2.4-0.2,2.6l-0.1,0.3l-1.6-0.5c-3.2-1-8.4-2.6-12.9-3.8c-2.5-0.7-4.6-1.3-4.6-1.4
		c0-0.2,3.7-3.9,5.3-5.3c3-2.7,11.3-9.1,11.6-9C100.2,39.3,100.6,40.3,101.1,42.6z M76.2,48.9c-3.5-6.2-9.1-12.5-15.5-17.5
		c-0.8-0.6-1.4-1.2-1.4-1.2c0,0,0.5,0.1,1.1,0.3c1.1,0.4,2.6,0.8,4.3,1.3c1.2,0.3,2.5,0.7,4,1.1c1.8,0.5,3.3,0.9,3.3,0.9
		c0.2,0.2,3.2,9.9,4.3,13.6c0.4,1.4,0.7,2.6,0.7,2.6C76.9,50.1,76.6,49.6,76.2,48.9z M80,50.4c-1.1-4.2-3.3-10.4-5.4-14.7
		C74.3,35,74,34.4,74,34.3c0,0,0,0,0,0c0.2,0,0.8,0.1,1.6,0.3c5.1,1.1,14.3,2.9,20.2,3.9c1,0.2,1.8,0.3,1.8,0.4
		c0,0.1-0.4,0.3-0.8,0.5c-1,0.5-5,2.9-6.3,3.8c-3.3,2.2-6.3,4.6-8.5,6.8c-0.9,0.9-1.6,1.6-1.6,1.6C80.3,51.6,80.1,51,80,50.4z
		 M73.6,102.5c2-3,3-4.8,4-7c0.9-2,1.9-4.3,2.5-6.3c0.3-0.8,0.6-1.5,0.6-1.5c0.1,0,0.8,0.4,1.6,0.8c1.9,1.1,3.6,2.2,5.2,3.5
		c0.1,0-0.7,0.7-1.8,1.4c-2.8,2.1-7.2,5.3-9.7,7.3C73.4,102.9,73.3,102.9,73.6,102.5z M60.1,119.4c-0.2,0.1,0.1-0.2,3.2-3.6
		c2-2.1,3.5-3.9,5.2-6.1c1.1-1.5,1.3-1.7,3-2.9c4.5-3.2,14.6-10.1,14.7-10c0.1,0.1-3.3,4-5.6,6.4c-5.8,5.9-11.5,10.6-18.7,15.1
		C61,118.8,60.2,119.3,60.1,119.4z M91.4,108.1c-7.4,2.9-14.2,5.7-18.7,7.8c-1.3,0.6-3.5,1.7-5,2.4c-1.5,0.7-2.7,1.3-2.7,1.3
		c0,0,0.9-0.7,2.1-1.6c9-6.5,16.8-13.7,22.6-20.8c0.6-0.8,1.2-1.4,1.3-1.5c0,0,0,0,0,0c0.1,0,0.3,0.2,1.1,1.5c1.7,2.6,3,6,3.4,8.8
		l0.1,0.6L91.4,108.1z M97.6,105.6c-0.1,0-0.1-0.4-0.1-1.1c0-3.6-0.9-7.5-2.6-10.8c-0.7-1.4-0.8-1.7-0.7-1.9
		c0.6-0.5,9.3-5.5,14.9-8.5c3.8-2,9.6-5,9.7-4.9c0.1,0.1-4.1,5.9-6.5,9.2c-2.9,3.9-8.2,10.5-11.8,14.7
		C98.9,104.1,97.6,105.6,97.6,105.6z M140.5,91.6c-13.8,3.8-24.4,7.2-36.8,11.8c-1.4,0.5-2.6,0.9-2.6,0.9c-0.2,0-0.3,0.2,2.8-2.7
		c7.9-7.3,14.9-15.4,20.2-23.2l1.1-1.6l1.5,0.9c3.4,2.2,7.3,5.1,10.4,7.7c1.7,1.4,5,4.4,5.7,5.1l0.4,0.4L140.5,91.6z M146,90
		c0,0-0.4-0.5-0.9-1.2c-3.4-5-7.4-9.5-12.2-13.4c-0.9-0.7-1.9-1.6-2.2-1.8c-0.3-0.2-0.6-0.5-0.6-0.5c0-0.1,5.1-2.3,9-3.9
		c6.8-2.8,16-6.1,23-8.2c3.7-1.1,7.5-2.2,7.6-2.2c0.1,0.1-1.9,3.2-3.2,5c-1.8,2.6-4.4,6-10.4,13.5c-3.1,4-6.7,8.4-7.9,9.9
		C147,88.8,146,90,146,90z"/>
	<path style="fill:none;" d="M82.3,116c-0.1,0-0.3,0-0.5,0.1c-0.3,0.1-0.4,0.3-0.5,0.5c0.4-0.2,0.8-0.3,1.2-0.5
		C82.4,116.1,82.4,116.1,82.3,116C82.4,116,82.4,116,82.3,116z"/>
	<path style="fill:none;" d="M59.9,126.2c-0.4,0.2-0.6,0.3-0.8,0.6c5.4-2.7,11.1-5.3,17.1-7.9c0.1-0.2,0.1-0.3,0.1-0.3
		C76.2,118.4,63.7,124.2,59.9,126.2z"/>
	<path style="fill:none;" d="M53.6,129.5C53.6,129.5,53.6,129.5,53.6,129.5c-0.4,0.1-5.2,2.8-8.2,4.5c-0.6,0.3-1.1,0.6-1.6,0.9
		c1.5-0.8,3.2-1.8,5.5-3.1C50.7,131.1,52.2,130.3,53.6,129.5C53.7,129.5,53.6,129.5,53.6,129.5z"/>
	<path style="fill:none;" d="M112,104.7c-2.5,0.8-2.5,0.9-2.2,1.1c0,0,0,0,0,0c5.3-1.8,10.9-3.6,16.7-5.4c-0.1-0.2-0.1-0.4-0.1-0.4
		C126.1,100,116.2,103.2,112,104.7z"/>
	<path style="fill:none;" d="M199.3,81c0,0-2.1-2.2-3.8-4c0.3,1.4,0.7,2.8,1,4.3C198,81.2,199.3,81.1,199.3,81z"/>
	<path style="fill:#E82C32;" d="M83.2,53.6c0,0.1,2.1,0.7,4.6,1.4c4.5,1.2,9.7,2.8,12.9,3.8l1.6,0.5l0.1-0.3
		c0.1-0.2,0.1-1.3,0.2-2.6c0.2-4.5-0.3-9.4-1.4-13.8c-0.6-2.3-0.9-3.3-1.1-3.3c-0.3-0.1-8.5,6.3-11.6,9
		C86.9,49.7,83.2,53.4,83.2,53.6z"/>
	<path style="fill:#E82C32;" d="M97.9,85.3c0,0,1.2-0.7,2.7-1.6c5-3.1,9.9-5.8,15.5-8.6c1.8-0.9,3.2-1.6,3.2-1.7
		c-0.2-0.2-4.3-2.4-7-3.7c-2.9-1.5-6.8-3.3-7.3-3.4c-0.1,0-0.2,0.3-0.3,0.8c-1.2,5.7-3.4,11.6-6.1,16.6
		C97.8,85.1,97.8,85.3,97.9,85.3z"/>
	<path style="fill:#E82C32;" d="M90.2,87.3l1.7,1.6l0.7-1.2c0.4-0.7,1.1-1.9,1.6-2.8c2-3.6,4.1-8.4,5.3-12.2c0.6-2,1.7-5.7,1.6-5.8
		c-0.1-0.1-6,4.7-8.9,7.1c-4,3.3-9.1,8-9.1,8.3c0,0.1,0.7,0.4,1.4,0.9C86.7,84.3,88.3,85.4,90.2,87.3z"/>
	<path style="fill:#E82C32;" d="M105.7,56.9c0,1.1,0,1.9,0,1.9c0,0,1.3-0.8,2.9-1.9c5.9-3.9,11.7-7.1,19.7-10.7
		c2-0.9,2.6-1.2,2.5-1.3c-0.4-0.2-6.4-1.4-10.6-2.2c-5.6-1.1-18-3.2-18.1-3.1c0,0,0.1,0.5,0.4,1C104.6,45.4,105.7,51.2,105.7,56.9z"
		/>
	<path style="fill:#E82C32;" d="M82.5,78.9c0.1,0,1.2-1.1,2.5-2.4c4.5-4.4,8.3-7.8,12.3-11.1c1-0.8,1.8-1.5,1.8-1.6
		c0-0.2-7.3-2.6-10.7-3.6c-2.3-0.6-6.4-1.6-6.5-1.5c0,0,0,0.7,0.2,1.6c0.9,6.6,1.1,13.1,0.4,18.1C82.5,78.7,82.5,78.9,82.5,78.9z"/>
	<path style="fill:#E82C32;" d="M40.2,176.1c0.7-1.1,1.9-2.9,2.7-4c0.8-1.1,3-4.2,4.8-6.8c5.4-7.5,9.2-13,9.1-13
		c0,0-1.5,0.3-3.2,0.7c-1.7,0.4-6.6,1.5-10.7,2.5c-7.5,1.7-15.6,3.6-16,3.8c-0.3,0.1-0.3,0.8,0,2.3c0.7,3.1,2.4,6.5,5,9.7
		c0.4,0.5,0.9,1,1.5,1.7c1.8,1.7,3.7,3.3,5.7,4.9L40.2,176.1z"/>
	<path style="fill:#E82C32;" d="M50.3,177c8.5-3,26.9-9.5,27.1-9.6c0.1,0-0.7-0.5-1.6-1.1c-5.4-3.1-9.8-6.7-14.1-11.5l-1-1.1
		l-5.3,6.4c-7.7,9.3-11.3,13.8-14.1,17.9l-0.7,1c0.4,0.3,0.8,0.7,1.3,1C42.8,179.6,46.3,178.4,50.3,177z"/>
	<path style="fill:#E82C32;" d="M85.6,114.9c0.2,0.7,1.1,2.7,1.6,3.8c1.3,2.6,3.2,5.3,5.5,8c1.4,1.6,5.5,5.6,5.6,5.5
		c0-0.1,0.4-1,0.7-2.1c1.4-4.6,2.2-8.7,2.8-13.1c0.2-1.7,0.3-7.3,0.2-8.5c-1,0.4-2.1,0.8-3.1,1.1C94.3,111.4,89.9,113.1,85.6,114.9z
		"/>
	<path style="fill:#E82C32;" d="M58.7,128.5c-0.5,2.5-0.6,6.6-0.2,9c0.4,2.4,1.3,4.9,2.3,7c0.5,0.9,0.5,1,0.7,0.8
		c0.1-0.1,0.8-1.2,1.5-2.4c4.3-6.8,7.5-12.4,10.4-18.1c1.2-2.4,2.5-5,2.8-5.9c-6,2.6-11.7,5.3-17.1,7.9
		C59,127,58.9,127.5,58.7,128.5z"/>
	<path style="fill:#E82C32;" d="M81.1,116.9c-0.1,0.3-0.6,1.6-1.1,2.9c-3,7.6-8.3,18.4-11.9,23.9c-0.8,1.2-0.9,1.4-0.6,1.3
		c0.1,0,2.4-0.8,5.1-1.7c7.1-2.3,13.3-4.5,19-6.6c4.9-1.9,4.8-1.8,4.6-2c-0.1-0.1-0.8-0.7-1.5-1.3c-2.2-1.9-4.9-4.8-6.9-7.5
		c-1.9-2.5-4-6.3-5-8.9c-0.2-0.4-0.3-0.8-0.4-1c-0.4,0.2-0.8,0.3-1.2,0.5C81.2,116.8,81.2,116.8,81.1,116.9z"/>
	<path style="fill:#E82C32;" d="M43.8,135c-3.3,2-5.6,3.8-8.3,6.6c-4.7,4.9-8.1,10.7-8.8,15.1c-0.1,0.5-0.1,0.6,0.2,0.5
		c0.1,0,1.8-0.5,3.6-1c6.3-1.7,26.1-7.5,26.4-7.7c0,0-0.5-1-1.1-2.3c-2.2-4.4-2.9-7.7-2.7-12.1c0.1-1,0.2-2.5,0.3-3.2
		c0.1-0.8,0.2-1.2,0.2-1.3c-1.5,0.8-2.9,1.5-4.4,2.3C47,133.1,45.2,134.1,43.8,135z"/>
	<path style="fill:#E82C32;" d="M105.8,109.8c0,6.1-1.2,13.6-3.2,21.1c-0.2,0.9-0.4,1.7-0.4,1.7c0,0,1.3-0.5,2.7-1.2
		c8.4-3.7,15.2-7.4,20.7-11.1c2.6-1.8,2.4-1.6,1.3-2c-3.6-1.6-12-6.2-18.2-10.1c-1.1-0.7-1.7-1-2.1-1.2c-0.3,0.1-0.5,0.2-0.8,0.3
		C105.8,107.6,105.8,108.3,105.8,109.8z"/>
	<path style="fill:#E82C32;" d="M119.4,112.1c3.4,2.2,8.3,5,8.5,5c0.1,0,0.1-0.8,0-2c-0.2-5.2-1-13-1.4-14.7
		c-5.8,1.8-11.5,3.6-16.7,5.4C110.8,106.5,116.4,110.3,119.4,112.1z"/>
	<path style="fill:#E82C32;" d="M27.6,147.2c1.9-2.3,5.5-5.9,7.9-7.8c0.1-0.1,0.3-0.2,0.4-0.3l-0.3,0.1
		c20.4-16.7,33.5-31.8,39.8-45.4c3.5-7.6,4.9-14.2,4.7-21.6c-0.3-11.6-3.5-20-10.9-28.6c-1.6-1.9-15-14.9-15-14.9
		c-1.3-1.2-2.4-2.4-2.8-3.4c-0.2-0.4-0.2-0.8-0.3-1.1l-0.1-0.1c0-0.2,0.1-0.3,0.1-0.5c0-0.1,0-0.2,0.1-0.3c0-0.1,0-0.1,0-0.2
		c0,0,0-0.1,0-0.1c0.1-0.2,0.1-0.3,0.1-0.3c0,0,0,0,0,0c0.6-1,2.4-2.7,3.8-3.7c4.5-3.1,11.7-6.7,21-10.5c4.1-1.7,9.6-3.7,13.5-5.1
		C40.5,8.7,2.1,50.4,2.1,101c0,21.8,7.1,41.9,19.1,58.2c0.1-0.7,0.3-1.4,0.5-2.1C22.7,154.3,24.9,150.7,27.6,147.2z"/>
	<path style="fill:#E82C32;" d="M110.3,140.2c4.4,2.4,9.3,4.5,13.8,5.9c1,0.3,1.9,0.6,1.9,0.6c0,0,0.2-1,0.4-2.2
		c1-6.7,1.8-15.9,1.8-22.6v-1.3l-0.4,0.4c-0.6,0.5-3.4,2.5-5.2,3.8c-4.9,3.3-10.5,6.6-16.4,9.6c-1.5,0.8-2.7,1.4-2.8,1.5
		C103.2,136,107.4,138.6,110.3,140.2z"/>
	<path style="fill:#E82C32;" d="M89.4,163c0,0,0.3-0.1,0.7-0.2c0.4-0.1,2.3-0.9,4.2-1.6c13.4-5,26.6-10.5,30.6-12.7l1-0.5l-0.7-0.2
		c-7.6-1.7-16.6-5.2-23-8.9c-0.9-0.5-1.6-0.9-1.6-0.9c0,0-0.2,0.5-0.4,1.1c-1.9,5.9-5.7,14.5-9.5,21.6C90,161.9,89.4,162.9,89.4,163
		z"/>
	<path style="fill:#E82C32;" d="M131.2,99.9c0.8,4.3,1.2,8.7,1.5,14.1c0.2,3.3,0.1,13.1-0.1,16c-0.8,10.4-2,19.3-3.6,25.9
		c-2.6,10.9-7.4,23.7-14.1,37.3c-1,2.1-2,3.9-2.7,5.3c48.6-5.9,86.2-47.2,86.2-97.4c0-6.1-0.6-12.1-1.7-17.9
		c-17.6,2.9-42.8,9.1-65.7,15.9C131.1,99.3,131.1,99.5,131.2,99.9z"/>
	<path style="fill:#E82C32;" d="M115.7,178.3c-4.4-0.4-11.8-1.6-16.9-2.9c-4.2-1-7.2-2-11.1-3.5c-1.6-0.6-3-1.1-3-1.1
		c0,0-0.8,1.3-1.8,2.8C79.3,179,75,184.8,70.7,190c-0.9,1-1.7,2-1.6,2c0.4,0.1,1,0.3,1.3,0.3c0.1,0,2.1-0.6,4.5-1.3
		c12.9-3.7,28.7-8.4,33.8-10c3.3-1,7.7-2.5,7.9-2.6C116.7,178.4,116.4,178.3,115.7,178.3z"/>
	<path style="fill:#E82C32;" d="M117.7,177.3c0,0,0.7-1.9,1.4-4.2c1.7-5.2,2.5-8.1,3.6-11.9c1.3-4.5,2.8-10.7,2.8-11.3c0,0,0,0,0,0
		c-0.1,0-0.5,0.2-1.1,0.5c-4.9,2.9-19,9.7-32.7,15.7c-2.3,1-4.1,1.8-4,1.9c0.2,0.2,3.2,1.5,5.3,2.3c7.5,3,15.5,5.3,24.4,6.9
		C117.5,177.2,117.6,177.2,117.7,177.3z"/>
	<path style="fill:#E82C32;" d="M82.7,165.5c0,0,1-1.6,2.1-3.6c4.4-7.8,7.8-14.7,10.4-21c0.3-0.7,0.5-1.4,0.5-1.4c0,0-1,0.4-2.2,0.9
		c-8.3,3.6-16.6,6.4-26.4,9.1l-2.7,0.8l0.5,0.7c3.7,4.7,9.3,9.5,15.7,13.4C81.7,164.9,82.6,165.5,82.7,165.5z"/>
	<path style="fill:#E82C32;" d="M110.3,197.8c1.8-4.3,6.7-17.8,6.5-18.1c0,0,0,0,0,0c-0.2,0-1,0.4-1.9,0.8c-5.9,2.7-11.8,5-17.7,6.8
		c-4.7,1.4-9.3,2.6-18.9,4.8l-4.5,1l0.7,0.2c3.2,0.7,15.7,2.9,23.2,4.1c3.2,0.5,7.8,1.1,10.3,1.5c0.6-0.1,1.3-0.1,1.9-0.2
		C110,198.5,110.2,198.2,110.3,197.8z"/>
	<path style="fill:#E82C32;" d="M48.5,184.4c1.9,1,4.5,2.2,7,3.2c2,0.8,9.6,3.5,10.7,3.8l0.4,0.1l0.9-1.5c0.5-0.8,1.4-2.3,2-3.3
		c0.6-1,2.4-3.8,4-6.3c3.7-5.9,5.9-9.3,5.8-9.4c0,0-0.8,0.2-1.7,0.5c-4.8,1.5-12.1,3.6-25.2,7.1c-4.5,1.2-8.3,2.3-9,2.5
		c1.5,1.1,3,2.1,4.5,3C48.2,184.2,48.4,184.3,48.5,184.4z"/>
	<path style="fill:#E82C32;" d="M85.2,31.3c3.3-2,7.9-4.6,12.2-6.8c1.1-0.5,1.9-1,1.9-1c0,0-0.9-0.1-1.9-0.2
		c-8.9-0.7-24.9-3.8-31.2-6L65,17l1.6,1.5c1.6,1.5,5.7,5.5,11,10.6l2.9,2.8c1,0.2,2,0.3,2.9,0.5C83.7,32.2,84.4,31.8,85.2,31.3z"/>
	<path style="fill:#E82C32;" d="M99.8,16.3c2.3,5.2,6.2,13,9.7,19.2l0.7,1.1c6.5,1,14.4,2.4,18.1,3.1c19.3,3.8,34.6,9,46.3,15.6
		c7.4,4.1,13.5,9,18.8,14.8c-13-39.1-49.7-67.2-93.1-67.2c-1.7,0-3.5,0-5.2,0.1c0.1,0.3,0.2,0.7,0.3,1.1
		C96.4,7.6,98.1,12.2,99.8,16.3z"/>
	<path style="fill:#E82C32;" d="M62.7,28.5c0.6,0.1,1.3,0.3,2.1,0.5c0.2,0.1,0.5,0.1,0.7,0.2c2.4,0.5,5.6,1.1,8.5,1.6
		c-0.1-0.1-0.4-0.6-0.9-1.1c-0.5-0.6-2.9-3.5-5.2-6.4l-4.2-5.3l-0.4,0.3c-4.3,3.1-6.9,6-6.9,8.1l0,0.3c0.3,0.1,0.6,0.2,0.9,0.4
		C59.1,27.5,61.1,28.1,62.7,28.5z"/>
	<path style="fill:#E82C32;" d="M67.3,15.8c0,0,1.4,0.2,3,0.4C80.2,17.6,94,20,97,20.8c1.3,0.4,1.3,0.6,0.2-2.7
		c-1.5-4.4-2.4-8.5-2.9-12.7c-0.1-1-0.2-1.8-0.3-1.9c0,0,0,0,0,0c-0.8,0.1-12.1,4.9-16.3,6.8C74.5,11.8,67.2,15.6,67.3,15.8z"/>
	<path style="fill:#E82C32;" d="M105.5,35.7c-0.8-1.2-4-7.3-5-9.5c-0.4-0.8-0.5-1.1-0.6-1.1c0,0-0.1,0-0.1,0.1
		c-0.1,0.1-0.8,0.6-1.5,1.2c-2.8,2.4-6,4.6-9.2,6.4c-0.4,0.2-0.6,0.4-0.7,0.4c5.1,0.9,10.6,1.7,17.2,2.8
		C105.6,35.9,105.5,35.8,105.5,35.7z"/>
	<path style="fill:#E82C32;" d="M193.8,75.4c-5.6-5.5-12.8-10.9-20.1-15.1c-0.9-0.5-1.6-0.9-1.7-0.8c0,0,0,0,0,0
		c0,0.1-0.6,1.4-1.4,2.8c-4.9,9.9-9.1,15.5-18.2,24.3c-1.5,1.4-2.6,2.6-2.6,2.6c0.1,0,1-0.2,2-0.5c15.6-3.7,31.8-6.4,44.4-7.4
		c0.1,0,0.1,0,0.2,0c-0.3-1.4-0.6-2.9-1-4.3C194.8,76.4,194.2,75.8,193.8,75.4z"/>
	<path style="fill:#E82C32;" d="M108.7,61.6c0.1,0,1.1,0.5,2.3,1c4.3,1.8,8.3,3.7,11.8,5.8c0.9,0.5,1.7,1,1.8,1c0.1,0,0.6-0.9,1.3-2
		c3.6-6.2,6.5-12.9,7.6-17.4c0.4-1.4,0.8-3.9,0.7-4c-0.1-0.1-6.7,3.6-10.8,6C118.1,55,108.5,61.4,108.7,61.6z"/>
	<path style="fill:#E82C32;" d="M129.7,68.8c0.1,0,0.8-0.3,1.7-0.7c10.7-4.3,21.7-7.7,34.7-10.7l1.5-0.4l-2.2-1
		c-5.3-2.4-13.4-5.4-20.5-7.5c-2.8-0.9-8.3-2.3-8.6-2.3c-0.1,0-0.2,0.5-0.2,1c-0.5,6.1-2.6,13.2-5.8,20
		C129.9,68.1,129.6,68.8,129.7,68.8z"/>
	<path style="fill:#E82C32;" d="M85.8,93.4c1-0.7,1.8-1.4,1.8-1.4c-1.5-1.3-3.2-2.4-5.2-3.5c-0.8-0.4-1.5-0.8-1.6-0.8
		c-0.1,0-0.4,0.7-0.6,1.5c-0.7,2-1.6,4.3-2.5,6.3c-1,2.2-2,3.9-4,7c-0.3,0.5-0.2,0.4,2.4-1.7C78.6,98.8,82.9,95.5,85.8,93.4z"/>
	<path style="fill:#E82C32;" d="M136.9,85.4c-3-2.5-7-5.5-10.4-7.7l-1.5-0.9l-1.1,1.6c-5.2,7.8-12.3,15.9-20.2,23.2
		c-3.1,2.9-2.9,2.7-2.8,2.7c0.1,0,1.3-0.4,2.6-0.9c12.4-4.6,23.1-8,36.8-11.8l2.4-0.7l-0.4-0.4C141.9,89.8,138.6,86.9,136.9,85.4z"
		/>
	<path style="fill:#E82C32;" d="M118.8,78.4c-0.1-0.1-5.9,2.9-9.7,4.9c-5.5,3-14.3,8-14.9,8.5c-0.1,0.1,0,0.5,0.7,1.9
		c1.6,3.3,2.5,7.2,2.6,10.8c0,0.7,0,1.1,0.1,1.1c0.1,0,1.4-1.5,2.9-3.3c3.6-4.3,8.9-10.8,11.8-14.7
		C114.7,84.3,118.8,78.5,118.8,78.4z"/>
	<path style="fill:#E82C32;" d="M92,97.1c-0.8-1.2-1-1.5-1.1-1.5c0,0,0,0,0,0c-0.1,0-0.6,0.7-1.3,1.5C83.7,104.3,76,111.5,67,118
		c-1.1,0.8-2.1,1.5-2.1,1.6c0,0,1.2-0.6,2.7-1.3c1.5-0.7,3.7-1.8,5-2.4c4.6-2.1,11.4-4.9,18.7-7.8l4.1-1.6l-0.1-0.6
		C95.1,103.1,93.8,99.7,92,97.1z"/>
	<path style="fill:#E82C32;" d="M166.5,63.8c1.2-1.8,3.2-4.9,3.2-5c-0.1-0.1-3.9,1.1-7.6,2.2c-6.9,2.1-16.2,5.4-23,8.2
		c-3.9,1.6-9,3.8-9,3.9c0,0,0.3,0.3,0.6,0.5c0.3,0.3,1.3,1.1,2.2,1.8c4.8,4,8.8,8.4,12.2,13.4c0.4,0.7,0.8,1.2,0.9,1.2
		c0,0,1-1.2,2.2-2.8c1.2-1.5,4.7-6,7.9-9.9C162.1,69.8,164.7,66.4,166.5,63.8z"/>
	<path style="fill:#E82C32;" d="M72,33.8c0,0-1.5-0.4-3.3-0.9c-1.4-0.4-2.8-0.7-4-1.1c-1.7-0.5-3.2-0.9-4.3-1.3
		c-0.6-0.2-1.1-0.4-1.1-0.3c0,0,0.6,0.6,1.4,1.2c6.4,5.1,12,11.3,15.5,17.5c0.4,0.7,0.7,1.2,0.7,1.2c0,0-0.3-1.2-0.7-2.6
		C75.2,43.7,72.2,34.1,72,33.8z"/>
	<path style="fill:#E82C32;" d="M86.2,96.8c-0.1-0.1-10.3,6.8-14.7,10c-1.7,1.2-1.9,1.4-3,2.9c-1.7,2.2-3.2,4-5.2,6.1
		c-3.1,3.4-3.4,3.7-3.2,3.6c0.1-0.1,0.9-0.6,1.8-1.1c7.1-4.5,12.9-9.2,18.7-15.1C82.9,100.8,86.4,96.9,86.2,96.8z"/>
	<path style="fill:#E82C32;" d="M81.9,50c2.2-2.2,5.2-4.6,8.5-6.8c1.3-0.9,5.3-3.3,6.3-3.8c0.4-0.2,0.8-0.5,0.8-0.5
		c0-0.1-0.8-0.2-1.8-0.4c-5.9-1-15-2.8-20.2-3.9c-0.8-0.2-1.5-0.3-1.6-0.3c0,0,0,0,0,0c0,0.1,0.3,0.7,0.6,1.4
		c2,4.4,4.3,10.5,5.4,14.7c0.2,0.6,0.3,1.1,0.3,1.1C80.3,51.6,81.1,50.8,81.9,50z"/>
	<path style="fill:#E42561;" d="M62.7,28.5c1.1,0.3,2,0.5,2.7,0.6c0,0,0.1,0,0.1,0c-0.3-0.1-0.5-0.1-0.7-0.2
		C64,28.8,63.3,28.6,62.7,28.5z"/>
	<path style="opacity:0.8;fill:#FAD4D7;" d="M62.7,28.5c1.1,0.3,2,0.5,2.7,0.6c0,0,0.1,0,0.1,0c-0.3-0.1-0.5-0.1-0.7-0.2
		C64,28.8,63.3,28.6,62.7,28.5z"/>
	<path style="fill:#E42561;" d="M51.3,23.1c0,0,0,0.1,0,0.2C51.3,23.2,51.3,23.1,51.3,23.1C51.3,23.1,51.3,23.1,51.3,23.1z"/>
	<path style="opacity:0.8;fill:#FAD4D7;" d="M51.3,23.1c0,0,0,0.1,0,0.2C51.3,23.2,51.3,23.1,51.3,23.1
		C51.3,23.1,51.3,23.1,51.3,23.1z"/>
	<path style="fill:#E42561;" d="M51.1,24.1L51.1,24.1c0-0.2,0.1-0.3,0.1-0.5C51.2,23.8,51.1,23.9,51.1,24.1z"/>
	<path style="opacity:0.8;fill:#FAD4D7;" d="M51.1,24.1L51.1,24.1c0-0.2,0.1-0.3,0.1-0.5C51.2,23.8,51.1,23.9,51.1,24.1z"/>
</g>
<g style="opacity:0.4;">
	<path style="fill:#962E5E;" d="M112.2,198.4c0.2,0,0.3,0,0.5-0.1l-0.3-0.3C112.3,198.2,112.3,198.3,112.2,198.4z"/>
</g>
</svg>
